<svg width="150" height="44" viewBox="0 0 150 44" fill="none" xmlns="http://www.w3.org/2000/svg">
<path d="M144.125 43.3822H5.64385C2.82191 43.3822 0.550598 41.117 0.550598 38.3026V5.6287C0.550598 2.81434 2.82191 0.549133 5.64385 0.549133H144.125C146.947 0.549133 149.219 2.81434 149.219 5.6287V38.3713C149.219 41.117 146.947 43.3822 144.125 43.3822Z" fill="black"/>
<path d="M144.125 44H5.64388C2.54663 44 0 41.4602 0 38.3713V5.62871C0 2.53978 2.54663 0 5.64388 0H144.125C147.223 0 149.769 2.53978 149.769 5.62871V38.3713C149.769 41.4602 147.223 44 144.125 44ZM5.64388 1.09828C3.16608 1.09828 1.10124 3.08892 1.10124 5.62871V38.3713C1.10124 40.8424 3.09725 42.9017 5.64388 42.9017H144.125C146.603 42.9017 148.668 40.9111 148.668 38.3713V5.62871C148.668 3.15757 146.672 1.09828 144.125 1.09828H5.64388Z" fill="#A7A9AC"/>
<path d="M49.8319 12.4929L49.2125 14.5522H47.8359L50.1761 7.34473H51.8968L54.2369 14.5522H52.7915L52.1033 12.4929H49.8319ZM51.9656 11.5319L51.415 9.74722C51.2773 9.33537 51.1397 8.78622 51.0708 8.37437C50.9332 8.78622 50.8644 9.26672 50.7267 9.74722L50.1761 11.5319H51.9656Z" fill="white"/>
<path d="M56.2329 9.33533L57.0589 12.0124C57.1965 12.4929 57.3342 12.9047 57.403 13.3166C57.4718 12.9047 57.6095 12.4929 57.7471 12.0124L58.5731 9.33533H59.9496L57.9536 14.5522H56.6459L54.7187 9.33533H56.2329Z" fill="white"/>
<path d="M65.3186 13.3166C65.3186 13.7971 65.3186 14.2776 65.3874 14.5521H64.2173L64.1485 14.003C63.8044 14.4148 63.3226 14.6894 62.6343 14.6894C61.6019 14.6894 60.9824 13.9343 60.9824 13.1106C60.9824 11.8064 62.1525 11.12 64.0797 11.12V11.0514C64.0797 10.7081 63.942 10.159 63.0473 10.159C62.5655 10.159 62.0148 10.2963 61.6707 10.5709L61.2577 9.6785C61.6707 9.47257 62.2901 9.198 63.1161 9.198C64.7679 9.198 65.2497 10.2276 65.2497 11.3946V13.3166H65.3186ZM64.0108 12.0124C63.0473 12.0124 62.1525 12.2183 62.1525 12.9733C62.1525 13.4538 62.4966 13.7284 62.9096 13.7284C63.4602 13.7284 63.8044 13.3852 63.942 13.042C63.942 12.9733 63.942 12.8361 63.942 12.7674V12.0124H64.0108Z" fill="white"/>
<path d="M67.796 8.58031C67.383 8.58031 67.0389 8.2371 67.0389 7.89389C67.0389 7.48203 67.3142 7.20746 67.796 7.20746C68.2778 7.20746 68.5531 7.55067 68.5531 7.89389C68.5531 8.2371 68.2778 8.58031 67.796 8.58031ZM67.1765 14.5522V9.33538H68.4843V14.5522H67.1765Z" fill="white"/>
<path d="M70.4121 6.93286H71.7198V14.5522H70.4121V6.93286Z" fill="white"/>
<path d="M77.7072 13.3166C77.7072 13.7971 77.7072 14.2776 77.776 14.5522H76.6059L76.5371 14.0031C76.193 14.4149 75.7112 14.6895 75.0229 14.6895C73.9905 14.6895 73.371 13.9344 73.371 13.1107C73.371 11.8065 74.5411 11.1201 76.4683 11.1201V11.0514C76.4683 10.7082 76.3306 10.1591 75.4359 10.1591C74.9541 10.1591 74.4034 10.2964 74.0593 10.5709L73.784 9.74722C74.197 9.54129 74.8164 9.26672 75.6424 9.26672C77.2942 9.26672 77.776 10.2964 77.776 11.4633V13.3166H77.7072ZM76.3995 12.0124C75.4359 12.0124 74.5411 12.2184 74.5411 12.9734C74.5411 13.4539 74.8852 13.7285 75.2982 13.7285C75.8488 13.7285 76.193 13.3853 76.3306 13.0421C76.3306 12.9734 76.3306 12.8361 76.3306 12.7675V12.0124H76.3995Z" fill="white"/>
<path d="M79.5664 6.93286H80.8741V10.0218C81.2183 9.54129 81.7689 9.19807 82.526 9.19807C83.8337 9.19807 84.7285 10.2277 84.7285 11.8751C84.7285 13.7285 83.5584 14.6895 82.3883 14.6895C81.7001 14.6895 81.0806 14.4149 80.7365 13.7971L80.6676 14.5522H79.5664C79.5664 14.209 79.6352 13.5912 79.6352 13.1107V6.93286H79.5664ZM80.8741 12.4243C80.8741 12.5616 80.8741 12.6302 80.8741 12.7675C81.0118 13.3166 81.4936 13.6599 82.0442 13.6599C82.8701 13.6599 83.3519 12.9734 83.3519 11.9438C83.3519 11.0514 82.939 10.2964 82.0442 10.2964C81.4936 10.2964 81.0118 10.7082 80.8741 11.2574C80.8741 11.326 80.8053 11.4633 80.8053 11.6006V12.4243H80.8741Z" fill="white"/>
<path d="M86.3107 6.93286H87.6184V14.5522H86.3107V6.93286Z" fill="white"/>
<path d="M90.5089 12.2869C90.5089 13.2479 91.266 13.6597 92.0919 13.6597C92.7114 13.6597 93.1243 13.5911 93.5373 13.4538L93.7438 14.3462C93.262 14.5521 92.6426 14.6894 91.8855 14.6894C90.1648 14.6894 89.2012 13.6597 89.2012 12.081C89.2012 10.6395 90.0959 9.2666 91.7478 9.2666C93.4685 9.2666 94.0191 10.6395 94.0191 11.8064C94.0191 12.081 94.0191 12.2182 93.9503 12.3555H90.5089V12.2869ZM92.7802 11.3945C92.7802 10.914 92.5737 10.0903 91.679 10.0903C90.853 10.0903 90.5089 10.8454 90.4401 11.3945H92.7802Z" fill="white"/>
<path d="M100.559 14.6894C99.1134 14.6894 97.9434 13.6597 97.9434 12.0123C97.9434 10.2962 99.0446 9.2666 100.628 9.2666C102.211 9.2666 103.243 10.3649 103.243 11.9437C103.243 13.797 101.867 14.6894 100.559 14.6894ZM100.559 13.7284C101.316 13.7284 101.867 12.9733 101.867 11.9437C101.867 11.12 101.522 10.159 100.628 10.159C99.664 10.159 99.3199 11.0513 99.3199 11.9437C99.2511 12.9733 99.8017 13.7284 100.559 13.7284Z" fill="white"/>
<path d="M104.757 10.9141C104.757 10.2963 104.757 9.81584 104.688 9.33535H105.858L105.927 10.0904C106.133 9.67856 106.753 9.19806 107.578 9.19806C108.473 9.19806 109.437 9.81584 109.437 11.4633V14.5522H108.129V11.6006C108.129 10.8455 107.854 10.2963 107.097 10.2963C106.546 10.2963 106.202 10.6396 106.064 11.0514C105.995 11.1887 105.995 11.326 105.995 11.4633V14.5522H104.688V10.9141H104.757Z" fill="white"/>
<path d="M115.631 7.96252V9.33538H116.87V10.2964H115.631V12.5616C115.631 13.1794 115.838 13.5226 116.32 13.5226C116.526 13.5226 116.664 13.5226 116.801 13.4539V14.4836C116.595 14.5522 116.251 14.6209 115.838 14.6209C115.356 14.6209 114.943 14.4836 114.668 14.209C114.392 13.9344 114.255 13.4539 114.255 12.7675V10.2964H113.566V9.33538H114.324V8.37438L115.631 7.96252Z" fill="white"/>
<path d="M118.316 6.93286H119.624V10.0218C119.762 9.74721 120.037 9.54129 120.312 9.404C120.588 9.26671 120.863 9.19807 121.207 9.19807C122.102 9.19807 123.066 9.81586 123.066 11.4633V14.5522H121.758V11.6006C121.758 10.8455 121.482 10.2964 120.725 10.2964C120.244 10.2964 119.831 10.6396 119.693 11.0514C119.624 11.1887 119.624 11.326 119.624 11.4633V14.6208H118.316V6.93286Z" fill="white"/>
<path d="M125.886 12.2869C125.886 13.2479 126.643 13.6597 127.469 13.6597C128.088 13.6597 128.501 13.5911 128.914 13.4538L129.121 14.3462C128.639 14.5521 128.02 14.6894 127.262 14.6894C125.542 14.6894 124.578 13.6597 124.578 12.081C124.578 10.6395 125.473 9.2666 127.125 9.2666C128.845 9.2666 129.396 10.6395 129.396 11.8064C129.396 12.081 129.396 12.2182 129.327 12.3555H125.886V12.2869ZM128.157 11.3945C128.157 10.914 127.951 10.0903 127.056 10.0903C126.23 10.0903 125.886 10.8454 125.817 11.3945H128.157Z" fill="white"/>
<path d="M33.4495 21.5537C33.4495 17.9843 36.4091 16.2682 36.5467 16.131C34.8948 13.6598 32.2794 13.3852 31.3158 13.3166C29.1133 13.1107 26.9796 14.6208 25.8784 14.6208C24.7083 14.6208 23.0565 13.3166 21.1981 13.3852C18.7891 13.4539 16.5867 14.8267 15.3478 16.9547C12.8011 21.2792 14.7283 27.7316 17.1373 31.2324C18.3762 32.9484 19.7527 34.8704 21.6111 34.8018C23.4006 34.7331 24.0889 33.6349 26.2225 33.6349C28.3562 33.6349 29.0445 34.8018 30.9028 34.7331C32.83 34.7331 34.0689 33.0171 35.239 31.2324C36.6155 29.2417 37.1662 27.3197 37.235 27.1824C37.1662 27.2511 33.4495 25.8096 33.4495 21.5537Z" fill="white"/>
<path d="M29.8696 11.0514C30.8332 9.81585 31.5215 8.16842 31.315 6.521C29.9385 6.58964 28.149 7.48199 27.1165 8.64892C26.2218 9.67856 25.3958 11.3946 25.6023 13.0421C27.2542 13.1793 28.8372 12.2183 29.8696 11.0514Z" fill="white"/>
<path d="M59.5359 34.5273H56.9893L55.6128 30.2028H50.7948L49.5559 34.5273H47.0781L51.8272 19.8377H54.7868L59.5359 34.5273ZM55.1998 28.3494L53.9609 24.5054C53.8232 24.0936 53.5479 23.2012 53.2038 21.7597H53.135C52.9973 22.3775 52.722 23.3385 52.4467 24.5054L51.2078 28.3494H55.1998Z" fill="white"/>
<path d="M71.7881 29.1045C71.7881 30.8892 71.3063 32.3307 70.3427 33.3603C69.4479 34.3213 68.3467 34.7332 67.1078 34.7332C65.7312 34.7332 64.6988 34.2527 64.0794 33.223H64.0105V38.7831H61.6704V27.3884C61.6704 26.2215 61.6704 25.1232 61.6016 23.8876H63.6664L63.804 25.535H63.8729C64.63 24.2995 65.8689 23.613 67.4519 23.613C68.6908 23.613 69.7232 24.0935 70.618 25.1232C71.3063 26.1528 71.7881 27.457 71.7881 29.1045ZM69.3791 29.1731C69.3791 28.1435 69.1726 27.3197 68.6908 26.6333C68.209 25.9469 67.5208 25.6037 66.626 25.6037C66.0754 25.6037 65.5247 25.8096 65.043 26.1528C64.5612 26.5647 64.2858 27.0452 64.0794 27.663C64.0105 27.9375 63.9417 28.2121 63.9417 28.3494V30.1341C63.9417 30.8892 64.1482 31.5756 64.63 32.0561C65.1118 32.6052 65.7312 32.8798 66.4883 32.8798C67.3831 32.8798 68.0714 32.5366 68.5532 31.8502C69.1038 31.1637 69.3791 30.2714 69.3791 29.1731Z" fill="white"/>
<path d="M83.9698 29.1045C83.9698 30.8892 83.488 32.3307 82.5244 33.3604C81.6297 34.3214 80.5972 34.7332 79.2895 34.7332C77.913 34.7332 76.8805 34.2527 76.2611 33.2231H76.1923V38.7831H73.8521V27.3884C73.8521 26.2215 73.8521 25.1232 73.7833 23.8877H75.8481L75.9858 25.5351H76.0546C76.8117 24.2995 78.0506 23.6131 79.6337 23.6131C80.8726 23.6131 81.905 24.0936 82.7997 25.1232C83.5568 26.1529 83.9698 27.4571 83.9698 29.1045ZM81.5608 29.1732C81.5608 28.1435 81.3544 27.3198 80.8726 26.6334C80.3908 25.9469 79.7025 25.6037 78.8077 25.6037C78.2571 25.6037 77.7065 25.8097 77.2247 26.1529C76.7429 26.5647 76.4676 27.0452 76.3299 27.663C76.2611 27.9376 76.1923 28.2122 76.1923 28.3494V30.1342C76.1923 30.8892 76.3987 31.5757 76.8805 32.0562C77.3623 32.6053 77.9818 32.8799 78.7389 32.8799C79.6337 32.8799 80.3219 32.5367 80.8037 31.8502C81.3544 31.1638 81.5608 30.2714 81.5608 29.1732Z" fill="white"/>
<path d="M97.6658 30.4087C97.6658 31.6443 97.2528 32.6739 96.3581 33.4976C95.3945 34.39 94.0868 34.8018 92.3661 34.8018C90.783 34.8018 89.4753 34.5273 88.5117 33.9095L89.0623 31.9188C90.0947 32.5366 91.2648 32.8798 92.5037 32.8798C93.3985 32.8798 94.0868 32.6739 94.5686 32.2621C95.0503 31.8502 95.3257 31.3011 95.3257 30.6833C95.3257 30.0655 95.1192 29.585 94.7062 29.1731C94.2933 28.7613 93.605 28.4181 92.6414 28.0062C90.0259 27.0452 88.787 25.6037 88.787 23.819C88.787 22.5834 89.2688 21.6224 90.1636 20.8674C91.0583 20.1123 92.2972 19.7004 93.7426 19.7004C95.1192 19.7004 96.2204 19.9064 97.1152 20.3869L96.4957 22.3089C95.6698 21.8284 94.7062 21.6224 93.6738 21.6224C92.8479 21.6224 92.1596 21.8284 91.7466 22.2402C91.3337 22.5834 91.1272 23.0639 91.1272 23.5444C91.1272 24.0936 91.3336 24.5741 91.8154 24.9859C92.2284 25.3291 92.9167 25.741 93.9491 26.1529C95.188 26.6334 96.1516 27.2511 96.7711 27.9376C97.3905 28.4867 97.6658 29.3791 97.6658 30.4087Z" fill="white"/>
<path d="M105.513 25.6724H102.898V30.8206C102.898 32.1249 103.38 32.8113 104.274 32.8113C104.687 32.8113 105.031 32.7426 105.307 32.674L105.376 34.4587C104.894 34.6646 104.274 34.7333 103.517 34.7333C102.554 34.7333 101.865 34.4587 101.315 33.9096C100.764 33.3604 100.558 32.3994 100.558 31.0266V25.6724H98.9746V23.8877H100.558V21.9657L102.898 21.2793V23.8877H105.513V25.6724Z" fill="white"/>
<path d="M117.282 29.1044C117.282 30.7518 116.8 32.0561 115.905 33.1543C114.942 34.2526 113.634 34.8018 111.982 34.8018C110.399 34.8018 109.16 34.2526 108.265 33.223C107.37 32.1933 106.889 30.8891 106.889 29.3103C106.889 27.6629 107.37 26.2901 108.334 25.2604C109.298 24.2308 110.605 23.6816 112.188 23.6816C113.771 23.6816 115.01 24.2308 115.974 25.2604C116.8 26.2214 117.282 27.5256 117.282 29.1044ZM114.804 29.1731C114.804 28.2121 114.597 27.3883 114.184 26.6333C113.703 25.8096 113.014 25.3291 112.051 25.3291C111.087 25.3291 110.399 25.7409 109.917 26.6333C109.504 27.3197 109.298 28.2121 109.298 29.1731C109.298 30.1341 109.504 30.9578 109.917 31.7128C110.399 32.5366 111.156 32.9484 112.051 32.9484C112.946 32.9484 113.634 32.5366 114.184 31.6442C114.597 31.0264 114.804 30.2027 114.804 29.1731Z" fill="white"/>
<path d="M124.922 25.9468C124.715 25.8782 124.44 25.8782 124.165 25.8782C123.339 25.8782 122.719 26.2214 122.237 26.8392C121.824 27.3883 121.618 28.0747 121.618 28.9671V34.5272H119.278V27.251C119.278 26.0155 119.278 24.9172 119.209 23.8875H121.274L121.343 25.9468H121.411C121.687 25.2604 122.031 24.7112 122.582 24.2994C123.132 23.8875 123.683 23.7502 124.302 23.7502C124.509 23.7502 124.715 23.7502 124.922 23.8189V25.9468Z" fill="white"/>
<path d="M135.521 28.6925C135.521 29.1044 135.521 29.4476 135.452 29.7908H128.363C128.363 30.8204 128.707 31.6442 129.396 32.1933C130.015 32.6738 130.772 32.9484 131.736 32.9484C132.768 32.9484 133.732 32.8111 134.626 32.4679L134.971 34.1153C133.938 34.5272 132.768 34.8017 131.392 34.8017C129.74 34.8017 128.432 34.3212 127.537 33.3602C126.574 32.3992 126.092 31.095 126.092 29.4476C126.092 27.8688 126.505 26.496 127.4 25.4663C128.294 24.2994 129.533 23.7502 131.116 23.7502C132.63 23.7502 133.801 24.2994 134.626 25.4663C135.177 26.29 135.521 27.3883 135.521 28.6925ZM133.25 28.0747C133.25 27.3883 133.112 26.7705 132.768 26.29C132.355 25.6036 131.736 25.329 130.91 25.329C130.153 25.329 129.533 25.6722 129.051 26.29C128.638 26.7705 128.432 27.3883 128.363 28.1434H133.25V28.0747Z" fill="white"/>
</svg>
