<svg width="150" height="44" viewBox="0 0 150 44" fill="none" xmlns="http://www.w3.org/2000/svg">
<path d="M143.939 43.3821H5.82969C3.01533 43.3821 0.750122 41.1169 0.750122 38.3026V5.62864C0.750122 2.81428 3.01533 0.549072 5.82969 0.549072H143.939C146.753 0.549072 149.018 2.81428 149.018 5.62864V38.3712C149.018 41.1169 146.753 43.3821 143.939 43.3821Z" fill="black"/>
<path d="M143.939 44H5.83C2.74108 44 0.201294 41.4602 0.201294 38.3713V5.62871C0.201294 2.53978 2.74108 0 5.83 0H143.939C147.028 0 149.568 2.53978 149.568 5.62871V38.3713C149.568 41.4602 147.028 44 143.939 44ZM5.83 1.09828C3.35886 1.09828 1.29958 3.08892 1.29958 5.62871V38.3713C1.29958 40.8424 3.29022 42.9017 5.83 42.9017H143.939C146.41 42.9017 148.47 40.9111 148.47 38.3713V5.62871C148.47 3.15757 146.479 1.09828 143.939 1.09828H5.83Z" fill="#A7A9AC"/>
<path d="M75.5717 24.0248C72.9633 24.0248 70.8354 26.0155 70.8354 28.6925C70.8354 31.3696 72.9633 33.3602 75.5717 33.3602C78.1801 33.3602 80.3081 31.3696 80.3081 28.6925C80.2394 26.0155 78.1801 24.0248 75.5717 24.0248ZM75.5717 31.5755C74.1302 31.5755 72.8947 30.4086 72.8947 28.7612C72.8947 27.0451 74.1302 25.9468 75.5717 25.9468C77.0132 25.9468 78.2488 27.1137 78.2488 28.7612C78.1801 30.4086 76.9446 31.5755 75.5717 31.5755ZM65.2753 24.0248C62.6669 24.0248 60.539 26.0155 60.539 28.6925C60.539 31.3696 62.6669 33.3602 65.2753 33.3602C67.8837 33.3602 70.0117 31.3696 70.0117 28.6925C70.0117 26.0155 67.8837 24.0248 65.2753 24.0248ZM65.2753 31.5755C63.8338 31.5755 62.5982 30.4086 62.5982 28.7612C62.5982 27.0451 63.8338 25.9468 65.2753 25.9468C66.7168 25.9468 67.9524 27.1137 67.9524 28.7612C67.9524 30.4086 66.7168 31.5755 65.2753 31.5755ZM53.0569 25.4663V27.457H57.7932C57.656 28.5552 57.2441 29.3789 56.695 29.9967C56.0085 30.6832 54.9103 31.4382 52.9883 31.4382C50.0366 31.4382 47.7714 29.1044 47.7714 26.1527C47.7714 23.2011 50.0366 20.8672 52.9883 20.8672C54.567 20.8672 55.734 21.485 56.5577 22.3087L57.9305 20.9359C56.7636 19.769 55.1848 18.9453 52.9196 18.9453C48.8697 18.9453 45.5062 22.2401 45.5062 26.2214C45.5062 30.2713 48.8697 33.4975 52.9196 33.4975C55.1162 33.4975 56.695 32.8111 57.9992 31.4382C59.3034 30.134 59.7152 28.2807 59.7152 26.7705C59.7152 26.29 59.6466 25.8782 59.578 25.535H53.0569V25.4663ZM103.097 27.0451C102.686 26.0155 101.519 24.0248 99.0475 24.0248C96.645 24.0248 94.5858 25.9468 94.5858 28.6925C94.5858 31.3009 96.5764 33.3602 99.2535 33.3602C101.381 33.3602 102.617 32.056 103.166 31.3009L101.587 30.2027C101.038 30.9577 100.352 31.5069 99.2535 31.5069C98.2238 31.5069 97.4688 31.0264 96.9883 30.0654L103.235 27.457L103.097 27.0451ZM96.645 28.6239C96.5764 26.8392 98.0179 25.8782 99.1162 25.8782C99.9399 25.8782 100.626 26.29 100.832 26.9078L96.645 28.6239ZM91.5655 33.1543H93.6248V19.3571H91.5655V33.1543ZM88.202 25.1231H88.1333C87.6528 24.574 86.7605 24.0935 85.6622 24.0935C83.3284 24.0935 81.1318 26.1527 81.1318 28.8298C81.1318 31.4382 83.2597 33.4975 85.6622 33.4975C86.7605 33.4975 87.6528 33.017 88.1333 32.3992H88.202V33.0857C88.202 34.8704 87.241 35.8314 85.6622 35.8314C84.4266 35.8314 83.6029 34.939 83.3283 34.1839L81.5436 34.939C82.0928 36.1746 83.397 37.6847 85.7308 37.6847C88.1333 37.6847 90.1926 36.2432 90.1926 32.8111V24.2994H88.202V25.1231ZM85.7995 31.5755C84.358 31.5755 83.1911 30.4086 83.1911 28.7612C83.1911 27.1137 84.358 25.8782 85.7995 25.8782C87.1723 25.8782 88.3393 27.1137 88.3393 28.7612C88.3393 30.4086 87.241 31.5755 85.7995 31.5755ZM112.707 19.3571H107.765V33.1543H109.824V27.9375H112.707C114.973 27.9375 117.238 26.29 117.238 23.6816C117.238 21.0732 115.041 19.3571 112.707 19.3571ZM112.776 26.0155H109.824V21.2791H112.776C114.286 21.2791 115.179 22.5833 115.179 23.613C115.179 24.7112 114.355 26.0155 112.776 26.0155ZM125.544 24.0248C124.034 24.0248 122.523 24.7112 121.837 26.1527L123.69 26.9078C124.102 26.1527 124.789 25.8782 125.544 25.8782C126.642 25.8782 127.672 26.496 127.74 27.6629V27.8002C127.397 27.5942 126.573 27.251 125.612 27.251C123.622 27.251 121.631 28.3493 121.631 30.3399C121.631 32.1933 123.278 33.3602 125.063 33.3602C126.436 33.3602 127.191 32.7424 127.672 31.9874H127.74V33.0857H129.731V27.8002C129.731 25.3977 127.877 24.0248 125.544 24.0248ZM125.269 31.5755C124.583 31.5755 123.622 31.2323 123.622 30.4086C123.622 29.3103 124.789 28.9671 125.818 28.9671C126.711 28.9671 127.122 29.173 127.672 29.4476C127.534 30.6832 126.436 31.5755 125.269 31.5755ZM136.938 24.2994L134.604 30.2713H134.536L132.065 24.2994H129.868L133.575 32.6738L131.447 37.3415H133.575L139.272 24.2994H136.938ZM118.405 33.1543H120.464V19.3571H118.405V33.1543Z" fill="white"/>
<path d="M11.8712 8.37431C11.528 8.71752 11.3907 9.26666 11.3907 9.95309V34.3213C11.3907 35.0077 11.5967 35.5568 11.8712 35.9L11.9399 35.9687L25.5998 22.2401V22.1029V21.9656L11.9399 8.30566L11.8712 8.37431Z" fill="#5BC9F4"/>
<path d="M30.1302 26.8392L25.5998 22.2401V22.1028V21.9655L30.1302 17.4351L30.1989 17.5038L35.6216 20.5927C37.1318 21.485 37.1318 22.9265 35.6216 23.7503L30.2675 26.7705L30.1302 26.8392Z" fill="url(#paint0_linear_2_280)"/>
<path d="M30.2675 26.7706L25.5998 22.1028L11.8713 35.8314C12.3518 36.3805 13.2441 36.4492 14.1365 35.9L30.2675 26.7706Z" fill="url(#paint1_linear_2_280)"/>
<path d="M30.2675 17.4351L14.1365 8.30565C13.1755 7.75651 12.3518 7.82515 11.8713 8.3743L25.5998 22.1028L30.2675 17.4351Z" fill="url(#paint2_linear_2_280)"/>
<path d="M50.9283 9.12949C50.5164 8.78627 49.9673 8.5117 49.3495 8.5117C47.9767 8.5117 46.947 9.60999 46.947 10.9828C46.947 12.3557 47.9767 13.454 49.3495 13.454C50.5164 13.454 51.3401 12.7676 51.4088 11.6693H49.6241V10.9828H52.4384C52.4384 13.2481 51.2029 14.3463 49.3495 14.3463C47.4962 14.3463 46.0547 12.8362 46.0547 11.0515C46.0547 9.19813 47.4962 7.68799 49.3495 7.68799C50.1732 7.68799 50.9969 8.0312 51.5461 8.58034L50.9283 9.12949Z" fill="white"/>
<path d="M57.5175 7.75659V8.5803H54.5659V10.6396H57.1743V11.4633H54.5659V13.4539H57.6548V14.2777H53.7422V7.75659H57.5175Z" fill="white"/>
<path d="M63.2153 7.75665V8.58037H61.2247V14.2777H60.3323V8.58037H58.3417V7.75665H63.2153Z" fill="white"/>
<path d="M67.4021 7.75659V14.2777H66.5097V7.75659H67.4021Z" fill="white"/>
<path d="M73.3736 7.75659V8.5803H71.383V14.2777H70.4906V8.5803H68.5V7.75659H73.3736Z" fill="white"/>
<path d="M79.5526 7.68799C81.406 7.68799 82.8475 9.19813 82.8475 11.0515C82.8475 12.9048 81.406 14.3463 79.5526 14.3463C77.6993 14.3463 76.2578 12.8362 76.2578 11.0515C76.2578 9.19813 77.6993 7.68799 79.5526 7.68799ZM79.5526 13.5226C80.9255 13.5226 81.9551 12.4243 81.9551 11.0515C81.9551 9.67863 80.9255 8.58034 79.5526 8.58034C78.1798 8.58034 77.1501 9.67863 77.1501 11.0515C77.1501 12.4243 78.1798 13.5226 79.5526 13.5226Z" fill="white"/>
<path d="M88.0647 14.2777L85.113 9.40402V14.2777H84.2207V7.75659H85.113L88.0647 12.6302V7.75659H88.957V14.2777H88.0647Z" fill="white"/>
<defs>
<linearGradient id="paint0_linear_2_280" x1="34.6539" y1="22.1115" x2="7.96177" y2="22.1115" gradientUnits="userSpaceOnUse">
<stop stop-color="#FEE000"/>
<stop offset="0.1941" stop-color="#FCCF0B"/>
<stop offset="0.5469" stop-color="#FAB318"/>
<stop offset="0.8279" stop-color="#F9A21B"/>
<stop offset="1" stop-color="#F99B1C"/>
</linearGradient>
<linearGradient id="paint1_linear_2_280" x1="27.727" y1="24.6428" x2="2.62187" y2="49.748" gradientUnits="userSpaceOnUse">
<stop stop-color="#EF4547"/>
<stop offset="1" stop-color="#C6186D"/>
</linearGradient>
<linearGradient id="paint2_linear_2_280" x1="2.50999" y1="-5.63775" x2="23.0077" y2="14.8599" gradientUnits="userSpaceOnUse">
<stop stop-color="#279E6F"/>
<stop offset="0.3168" stop-color="#4DAB6D"/>
<stop offset="0.7398" stop-color="#6ABA6A"/>
<stop offset="1" stop-color="#74C169"/>
</linearGradient>
</defs>
</svg>
